<mxfile host="Electron" modified="2025-01-16T06:27:08.858Z" agent="Mozilla/5.0 (Windows NT 10.0; Win64; x64) AppleWebKit/537.36 (KHTML, like Gecko) draw.io/24.0.4 Chrome/120.0.6099.109 Electron/28.1.0 Safari/537.36" etag="DJ8tam_h0F07_Hd11YSd" version="24.0.4" type="device">
  <diagram id="C5RBs43oDa-KdzZeNtuy" name="Page-1">
    <mxGraphModel dx="1434" dy="844" grid="1" gridSize="10" guides="1" tooltips="1" connect="1" arrows="1" fold="1" page="1" pageScale="1" pageWidth="827" pageHeight="1169" math="0" shadow="0">
      <root>
        <mxCell id="WIyWlLk6GJQsqaUBKTNV-0" />
        <mxCell id="WIyWlLk6GJQsqaUBKTNV-1" parent="WIyWlLk6GJQsqaUBKTNV-0" />
        <mxCell id="wu4lfFZXknNbD2lvHdHR-0" value="" style="ellipse;html=1;shape=startState;fillColor=#000000;strokeColor=#ff0000;" vertex="1" parent="WIyWlLk6GJQsqaUBKTNV-1">
          <mxGeometry x="360" y="160" width="30" height="30" as="geometry" />
        </mxCell>
        <mxCell id="wu4lfFZXknNbD2lvHdHR-1" value="" style="edgeStyle=orthogonalEdgeStyle;html=1;verticalAlign=bottom;endArrow=open;endSize=8;strokeColor=#ff0000;rounded=0;entryX=0.5;entryY=0;entryDx=0;entryDy=0;" edge="1" source="wu4lfFZXknNbD2lvHdHR-0" parent="WIyWlLk6GJQsqaUBKTNV-1" target="wu4lfFZXknNbD2lvHdHR-3">
          <mxGeometry relative="1" as="geometry">
            <mxPoint x="375" y="250" as="targetPoint" />
          </mxGeometry>
        </mxCell>
        <mxCell id="wu4lfFZXknNbD2lvHdHR-2" value="Unity调用Build" style="text;align=center;fontStyle=1;verticalAlign=middle;spacingLeft=3;spacingRight=3;strokeColor=none;rotatable=0;points=[[0,0.5],[1,0.5]];portConstraint=eastwest;html=1;" vertex="1" parent="WIyWlLk6GJQsqaUBKTNV-1">
          <mxGeometry x="335" y="130" width="80" height="26" as="geometry" />
        </mxCell>
        <mxCell id="wu4lfFZXknNbD2lvHdHR-5" value="" style="edgeStyle=orthogonalEdgeStyle;rounded=0;orthogonalLoop=1;jettySize=auto;html=1;" edge="1" parent="WIyWlLk6GJQsqaUBKTNV-1" source="wu4lfFZXknNbD2lvHdHR-3" target="wu4lfFZXknNbD2lvHdHR-4">
          <mxGeometry relative="1" as="geometry" />
        </mxCell>
        <mxCell id="wu4lfFZXknNbD2lvHdHR-3" value="进入构建前处理环节" style="rounded=1;whiteSpace=wrap;html=1;" vertex="1" parent="WIyWlLk6GJQsqaUBKTNV-1">
          <mxGeometry x="315" y="240" width="120" height="60" as="geometry" />
        </mxCell>
        <mxCell id="wu4lfFZXknNbD2lvHdHR-7" value="Y" style="edgeStyle=orthogonalEdgeStyle;rounded=0;orthogonalLoop=1;jettySize=auto;html=1;" edge="1" parent="WIyWlLk6GJQsqaUBKTNV-1" source="wu4lfFZXknNbD2lvHdHR-4" target="wu4lfFZXknNbD2lvHdHR-6">
          <mxGeometry relative="1" as="geometry" />
        </mxCell>
        <mxCell id="wu4lfFZXknNbD2lvHdHR-11" value="N" style="edgeStyle=orthogonalEdgeStyle;rounded=0;orthogonalLoop=1;jettySize=auto;html=1;" edge="1" parent="WIyWlLk6GJQsqaUBKTNV-1" source="wu4lfFZXknNbD2lvHdHR-4" target="wu4lfFZXknNbD2lvHdHR-10">
          <mxGeometry relative="1" as="geometry" />
        </mxCell>
        <mxCell id="wu4lfFZXknNbD2lvHdHR-4" value="构建Android？" style="rhombus;whiteSpace=wrap;html=1;rounded=1;" vertex="1" parent="WIyWlLk6GJQsqaUBKTNV-1">
          <mxGeometry x="335" y="330" width="80" height="80" as="geometry" />
        </mxCell>
        <mxCell id="wu4lfFZXknNbD2lvHdHR-9" value="N" style="edgeStyle=orthogonalEdgeStyle;rounded=0;orthogonalLoop=1;jettySize=auto;html=1;" edge="1" parent="WIyWlLk6GJQsqaUBKTNV-1" source="wu4lfFZXknNbD2lvHdHR-6" target="wu4lfFZXknNbD2lvHdHR-8">
          <mxGeometry relative="1" as="geometry" />
        </mxCell>
        <mxCell id="wu4lfFZXknNbD2lvHdHR-14" value="Y" style="edgeStyle=orthogonalEdgeStyle;rounded=0;orthogonalLoop=1;jettySize=auto;html=1;exitX=0.5;exitY=1;exitDx=0;exitDy=0;entryX=0;entryY=0.5;entryDx=0;entryDy=0;" edge="1" parent="WIyWlLk6GJQsqaUBKTNV-1" source="wu4lfFZXknNbD2lvHdHR-6" target="wu4lfFZXknNbD2lvHdHR-10">
          <mxGeometry relative="1" as="geometry" />
        </mxCell>
        <mxCell id="wu4lfFZXknNbD2lvHdHR-6" value="Export Projects？" style="rhombus;whiteSpace=wrap;html=1;rounded=1;" vertex="1" parent="WIyWlLk6GJQsqaUBKTNV-1">
          <mxGeometry x="335" y="450" width="80" height="80" as="geometry" />
        </mxCell>
        <mxCell id="wu4lfFZXknNbD2lvHdHR-13" value="" style="edgeStyle=orthogonalEdgeStyle;rounded=0;orthogonalLoop=1;jettySize=auto;html=1;" edge="1" parent="WIyWlLk6GJQsqaUBKTNV-1" source="wu4lfFZXknNbD2lvHdHR-8" target="wu4lfFZXknNbD2lvHdHR-12">
          <mxGeometry relative="1" as="geometry" />
        </mxCell>
        <mxCell id="wu4lfFZXknNbD2lvHdHR-8" value="准备Assets中的打包需要的资源" style="whiteSpace=wrap;html=1;rounded=1;" vertex="1" parent="WIyWlLk6GJQsqaUBKTNV-1">
          <mxGeometry x="170" y="460" width="120" height="60" as="geometry" />
        </mxCell>
        <mxCell id="wu4lfFZXknNbD2lvHdHR-22" value="" style="edgeStyle=orthogonalEdgeStyle;rounded=0;orthogonalLoop=1;jettySize=auto;html=1;" edge="1" parent="WIyWlLk6GJQsqaUBKTNV-1" source="wu4lfFZXknNbD2lvHdHR-10" target="wu4lfFZXknNbD2lvHdHR-21">
          <mxGeometry relative="1" as="geometry" />
        </mxCell>
        <mxCell id="wu4lfFZXknNbD2lvHdHR-10" value="构建Projects工程" style="ellipse;whiteSpace=wrap;html=1;rounded=1;" vertex="1" parent="WIyWlLk6GJQsqaUBKTNV-1">
          <mxGeometry x="470" y="560" width="80" height="80" as="geometry" />
        </mxCell>
        <mxCell id="wu4lfFZXknNbD2lvHdHR-20" value="" style="edgeStyle=orthogonalEdgeStyle;rounded=0;orthogonalLoop=1;jettySize=auto;html=1;" edge="1" parent="WIyWlLk6GJQsqaUBKTNV-1" source="wu4lfFZXknNbD2lvHdHR-12" target="wu4lfFZXknNbD2lvHdHR-19">
          <mxGeometry relative="1" as="geometry" />
        </mxCell>
        <mxCell id="wu4lfFZXknNbD2lvHdHR-12" value="构建APK或AAB" style="ellipse;whiteSpace=wrap;html=1;rounded=1;" vertex="1" parent="WIyWlLk6GJQsqaUBKTNV-1">
          <mxGeometry x="190" y="560" width="80" height="80" as="geometry" />
        </mxCell>
        <mxCell id="wu4lfFZXknNbD2lvHdHR-15" value="&lt;ul&gt;&lt;li&gt;XCode项目&lt;/li&gt;&lt;li&gt;Android工程&lt;/li&gt;&lt;/ul&gt;" style="text;align=left;fontStyle=1;verticalAlign=middle;spacingLeft=3;spacingRight=3;strokeColor=none;rotatable=0;points=[[0,0.5],[1,0.5]];portConstraint=eastwest;html=1;" vertex="1" parent="WIyWlLk6GJQsqaUBKTNV-1">
          <mxGeometry x="560" y="575" width="170" height="50" as="geometry" />
        </mxCell>
        <mxCell id="wu4lfFZXknNbD2lvHdHR-28" value="" style="edgeStyle=orthogonalEdgeStyle;rounded=0;orthogonalLoop=1;jettySize=auto;html=1;" edge="1" parent="WIyWlLk6GJQsqaUBKTNV-1" source="wu4lfFZXknNbD2lvHdHR-19" target="wu4lfFZXknNbD2lvHdHR-27">
          <mxGeometry relative="1" as="geometry" />
        </mxCell>
        <mxCell id="wu4lfFZXknNbD2lvHdHR-19" value="进入构建后处理环节" style="whiteSpace=wrap;html=1;rounded=1;" vertex="1" parent="WIyWlLk6GJQsqaUBKTNV-1">
          <mxGeometry x="170" y="680" width="120" height="60" as="geometry" />
        </mxCell>
        <mxCell id="wu4lfFZXknNbD2lvHdHR-26" value="" style="edgeStyle=orthogonalEdgeStyle;rounded=0;orthogonalLoop=1;jettySize=auto;html=1;" edge="1" parent="WIyWlLk6GJQsqaUBKTNV-1" source="wu4lfFZXknNbD2lvHdHR-21" target="wu4lfFZXknNbD2lvHdHR-25">
          <mxGeometry relative="1" as="geometry" />
        </mxCell>
        <mxCell id="wu4lfFZXknNbD2lvHdHR-21" value="进入构建后处理环节" style="whiteSpace=wrap;html=1;rounded=1;" vertex="1" parent="WIyWlLk6GJQsqaUBKTNV-1">
          <mxGeometry x="450" y="680" width="120" height="60" as="geometry" />
        </mxCell>
        <mxCell id="wu4lfFZXknNbD2lvHdHR-31" style="edgeStyle=orthogonalEdgeStyle;rounded=0;orthogonalLoop=1;jettySize=auto;html=1;exitX=0.5;exitY=1;exitDx=0;exitDy=0;entryX=1;entryY=0.5;entryDx=0;entryDy=0;" edge="1" parent="WIyWlLk6GJQsqaUBKTNV-1" source="wu4lfFZXknNbD2lvHdHR-25" target="wu4lfFZXknNbD2lvHdHR-29">
          <mxGeometry relative="1" as="geometry" />
        </mxCell>
        <mxCell id="wu4lfFZXknNbD2lvHdHR-25" value="修改工程目录，完成图标配置" style="whiteSpace=wrap;html=1;rounded=1;" vertex="1" parent="WIyWlLk6GJQsqaUBKTNV-1">
          <mxGeometry x="450" y="770" width="120" height="60" as="geometry" />
        </mxCell>
        <mxCell id="wu4lfFZXknNbD2lvHdHR-30" style="edgeStyle=orthogonalEdgeStyle;rounded=0;orthogonalLoop=1;jettySize=auto;html=1;exitX=0.5;exitY=1;exitDx=0;exitDy=0;entryX=0;entryY=0.5;entryDx=0;entryDy=0;" edge="1" parent="WIyWlLk6GJQsqaUBKTNV-1" source="wu4lfFZXknNbD2lvHdHR-27" target="wu4lfFZXknNbD2lvHdHR-29">
          <mxGeometry relative="1" as="geometry" />
        </mxCell>
        <mxCell id="wu4lfFZXknNbD2lvHdHR-27" value="清理Assets中的打包需要的资源" style="whiteSpace=wrap;html=1;rounded=1;" vertex="1" parent="WIyWlLk6GJQsqaUBKTNV-1">
          <mxGeometry x="170" y="770" width="120" height="60" as="geometry" />
        </mxCell>
        <mxCell id="wu4lfFZXknNbD2lvHdHR-29" value="" style="ellipse;html=1;shape=endState;fillColor=#000000;strokeColor=#ff0000;" vertex="1" parent="WIyWlLk6GJQsqaUBKTNV-1">
          <mxGeometry x="350" y="840" width="30" height="30" as="geometry" />
        </mxCell>
      </root>
    </mxGraphModel>
  </diagram>
</mxfile>
